<?xml version="1.0" encoding="UTF-8"?>
<svg width="913px" height="192px" viewBox="0 0 913 192" version="1.1" xmlns="http://www.w3.org/2000/svg" xmlns:xlink="http://www.w3.org/1999/xlink">
    <title>Group</title>
    <g id="FInal" stroke="none" stroke-width="1" fill="none" fill-rule="evenodd">
        <g id="3.3" transform="translate(-504.000000, -439.000000)">
            <g id="Group" transform="translate(504.595000, 439.000000)">
                <path d="M41.82,147.02 C65.28,147.02 81.6,135.97 81.6,118.63 C81.6,98.91 64.94,94.32 44.88,92.28 C32.3,90.75 24.82,90.07 24.82,83.44 C24.82,77.83 30.94,74.43 40.29,74.43 C49.98,74.43 56.61,78.68 57.29,85.65 L80.24,85.65 C79.05,67.8 62.9,57.43 39.44,57.43 C17,57.26 1.87,68.65 1.87,85.99 C1.87,104.01 17.68,108.6 38.08,110.98 C52.19,112.85 58.14,113.36 58.14,120.5 C58.14,126.62 52.02,129.85 41.99,129.85 C30.26,129.85 23.63,124.58 22.78,116.93 L4.54747351e-13,116.93 C1.02,135.63 17.51,147.02 41.82,147.02 Z M145.01,146 L145.01,125.77 L133.11,125.77 C126.82,125.77 124.44,123.22 124.44,117.1 L124.44,78.85 L144.5,78.85 L144.5,58.62 L124.44,58.62 L124.44,34.14 L100.47,34.14 L100.47,58.62 L86.02,58.62 L86.02,78.85 L100.47,78.85 L100.47,121.01 C100.47,137.67 108.8,146 125.46,146 L145.01,146 Z M198.73,147.02 C226.61,147.02 244.8,129.34 244.8,102.31 C244.8,75.45 226.61,57.6 198.73,57.6 C170.85,57.6 152.66,75.45 152.66,102.31 C152.66,129.17 170.85,147.02 198.73,147.02 Z M198.73,127.47 C185.3,127.47 177.14,117.1 177.14,102.31 C177.14,87.52 185.3,77.15 198.73,77.15 C212.16,77.15 220.49,87.52 220.49,102.31 C220.49,117.1 212.16,127.47 198.73,127.47 Z M282.03,146 L282.03,103.16 C282.03,89.9 287.47,80.38 301.75,80.38 L311.27,80.38 L311.27,58.62 L307.19,58.62 C293.59,58.62 286.79,63.89 282.03,71.71 L279.82,58.62 L258.06,58.62 L258.06,146 L282.03,146 Z M365.16,147.02 C388.45,147.02 403.58,133.42 406.3,116.42 L382.67,116.42 C380.63,124.58 373.83,128.83 364.14,128.83 C352.07,128.83 344.08,121.35 343.57,108.94 L343.57,107.75 L406.98,107.75 C407.49,105.03 407.66,102.14 407.66,99.59 C407.32,73.92 389.64,57.6 363.46,57.6 C336.43,57.6 318.58,75.28 318.58,102.48 C318.58,129.51 336.09,147.02 365.16,147.02 Z M383.52,92.11 L344.08,92.11 C345.44,81.74 353.26,75.45 363.63,75.45 C374.51,75.45 381.82,81.4 383.52,92.11 Z M599.54,147.02 C623.17,147.02 640.17,129.17 640.17,102.14 C640.17,74.43 623.17,57.6 599.71,57.6 C587.64,57.6 579.14,62.7 573.36,69.67 L573.36,27 L549.39,27 L549.39,146 L570.3,146 L572.68,134.1 C578.29,141.58 586.96,147.02 599.54,147.02 Z M594.27,127.47 C581.18,127.47 573.02,117.1 573.02,102.14 C573.02,87.35 581.18,77.15 594.27,77.15 C607.36,77.15 615.86,87.35 615.86,102.31 C615.86,117.27 607.36,127.47 594.27,127.47 Z M686.58,147.02 C698.99,147.02 706.64,142.26 712.25,135.46 L714.46,146 L735.71,146 L735.71,58.62 L711.74,58.62 L711.74,102.31 C711.74,118.46 704.77,127.13 692.87,127.13 C680.97,127.13 675.87,119.48 675.87,103.84 L675.87,58.62 L651.9,58.62 L651.9,107.07 C651.9,138.01 668.56,147.02 686.58,147.02 Z M825.81,146 L825.81,125.77 L780.08,125.77 L823.77,74.94 L823.77,58.62 L749.82,58.62 L749.82,78.85 L791.47,78.85 L747.78,129.68 L747.78,146 L825.81,146 Z M911.32,146 L911.32,125.77 L865.59,125.77 L909.28,74.94 L909.28,58.62 L835.33,58.62 L835.33,78.85 L876.98,78.85 L833.29,129.68 L833.29,146 L911.32,146 Z" id="storebuzz" fill="#262627" fill-rule="nonzero"></path>
                <path d="M498.647738,8.52651283e-14 C498.647738,8.52651283e-14 473.566826,37.6590296 423.405,112.977089 L463.067563,112.977089 L445.893051,191.181989 L523.405,79.9098889 L481.15688,79.9098889 C492.817452,26.6366296 498.647738,8.52651283e-14 498.647738,8.52651283e-14 Z" id="Path-3" fill="#00DEFF"></path>
            </g>
        </g>
    </g>
</svg>